<svg width="32" height="32" viewBox="0 0 32 32" fill="none" xmlns="http://www.w3.org/2000/svg">
<path d="M13.2727 4L31 4M13.2727 4C13.2727 5.65685 12.0517 7 10.5455 7C9.03922 7 7.81818 5.65685 7.81818 4M13.2727 4C13.2727 2.34315 12.0517 1 10.5455 1C9.03922 1 7.81818 2.34314 7.81818 4M1 4H7.81818M13.2727 28H31M13.2727 28C13.2727 29.6569 12.0517 31 10.5455 31C9.03922 31 7.81818 29.6569 7.81818 28M13.2727 28C13.2727 26.3431 12.0517 25 10.5455 25C9.03922 25 7.81818 26.3431 7.81818 28M1 28L7.81818 28M24.1818 16L31 16M24.1818 16C24.1818 17.6569 22.9608 19 21.4545 19C19.9483 19 18.7273 17.6569 18.7273 16M24.1818 16C24.1818 14.3431 22.9608 13 21.4545 13C19.9483 13 18.7273 14.3431 18.7273 16M1 16H18.7273" stroke="#0F172A" stroke-width="1.5" stroke-linecap="round" stroke-linejoin="round"/>
</svg>
