<svg width="278" height="46" viewBox="0 0 278 46" fill="none" xmlns="http://www.w3.org/2000/svg">
<rect width="278" height="46" rx="12" fill="white"/>
<path d="M147.543 18.082H138.681V16.78H148.985V22.24H147.543V18.082ZM149.839 24.55H144.505V28.736H143.077V24.55H137.897V23.234H149.839V24.55ZM161.066 17.788H152.148V16.64H162.452V20.224H161.066V17.788ZM151.364 20.854H163.306V21.988H151.364V20.854ZM152.19 25.124H161.122V24.088H152.162V22.996H162.48V26.174H153.548V27.224H162.69V28.316H152.19V25.124ZM180.696 26.608V27.882H168.754V26.608H173.99V24.354H169.552V20.042H178.54V18.166H169.552V16.934H179.912V21.232H170.938V23.122H180.094V24.354H175.404V26.608H180.696ZM191.909 18.222H182.949V16.92H193.365V25.208H191.909V18.222ZM182.221 26.58H194.163V27.882H182.221V26.58ZM205.46 16.5H206.846V25.376H205.46V16.5ZM199.594 23.57C198.829 23.57 198.157 23.4207 197.578 23.122C197.009 22.8233 196.57 22.4127 196.262 21.89C195.954 21.358 195.8 20.7607 195.8 20.098C195.8 19.4353 195.954 18.8427 196.262 18.32C196.57 17.788 197.009 17.3727 197.578 17.074C198.157 16.7753 198.829 16.626 199.594 16.626C200.359 16.626 201.027 16.7753 201.596 17.074C202.165 17.3727 202.604 17.7833 202.912 18.306C203.22 18.8287 203.374 19.426 203.374 20.098C203.374 20.77 203.22 21.3673 202.912 21.89C202.604 22.4127 202.165 22.8233 201.596 23.122C201.027 23.4207 200.359 23.57 199.594 23.57ZM199.594 22.394C200.313 22.394 200.891 22.1887 201.33 21.778C201.769 21.358 201.988 20.798 201.988 20.098C201.988 19.398 201.764 18.838 201.316 18.418C200.877 17.998 200.303 17.788 199.594 17.788C198.875 17.788 198.292 17.998 197.844 18.418C197.405 18.838 197.186 19.398 197.186 20.098C197.186 20.798 197.405 21.358 197.844 21.778C198.292 22.1887 198.875 22.394 199.594 22.394ZM196.85 24.396H198.264V27.042H207.168V28.302H196.85V24.396Z" fill="black"/>
<path fill-rule="evenodd" clip-rule="evenodd" d="M63.6695 24.0758C63.6695 22.8919 63.5581 21.7535 63.3512 20.6606H46.8633V27.1191H56.285C55.8791 29.2061 54.6457 30.9744 52.7916 32.1583V36.3476H58.4494C61.7597 33.4409 63.6695 29.1606 63.6695 24.0758Z" fill="#4285F4"/>
<path fill-rule="evenodd" clip-rule="evenodd" d="M46.8642 40.3927C51.591 40.3927 55.5538 38.8976 58.4503 36.3476L52.7925 32.1584C51.2249 33.1601 49.2196 33.7521 46.8642 33.7521C42.3045 33.7521 38.4451 30.8151 37.0685 26.8687H31.2197V31.1945C34.1003 36.6512 40.0207 40.3927 46.8642 40.3927Z" fill="#34A853"/>
<path fill-rule="evenodd" clip-rule="evenodd" d="M37.0683 26.8685C36.7181 25.8667 36.5192 24.7966 36.5192 23.6962C36.5192 22.5957 36.7181 21.5256 37.0683 20.5239V16.198H31.2195C30.0338 18.452 29.3574 21.002 29.3574 23.6962C29.3574 26.3903 30.0338 28.9403 31.2195 31.1943L37.0683 26.8685Z" fill="#FBBC05"/>
<path fill-rule="evenodd" clip-rule="evenodd" d="M46.8642 13.6406C49.4345 13.6406 51.7421 14.483 53.5565 16.1374L58.5777 11.3486C55.5458 8.65445 51.583 7 46.8642 7C40.0207 7 34.1003 10.7415 31.2197 16.1982L37.0685 20.524C38.4451 16.5776 42.3045 13.6406 46.8642 13.6406Z" fill="#EA4335"/>
</svg>
