<svg width="276" height="46" viewBox="0 0 276 46" fill="none" xmlns="http://www.w3.org/2000/svg">
<rect width="276" height="46" rx="12" fill="#FEE500"/>
<path opacity="0.902" fill-rule="evenodd" clip-rule="evenodd" d="M48 6.88794C38.58 6.88794 30 14.4599 30 20.8659C30 25.6659 33.116 29.8999 37.862 32.4159L35.866 39.7479C35.688 40.3979 36.426 40.9139 36.992 40.5399L45.746 34.7299C46.484 34.8019 47.236 34.8439 48 34.8439C57.94 34.8439 66 28.5859 66 20.8659C66 14.4599 57.94 6.88794 48 6.88794Z" fill="black"/>
<path d="M141.772 22.674H140.092V28.456H138.706V16.5H140.092V21.344H141.772V22.674ZM129.704 16.934H136.326V20.28C136.326 21.8107 136.046 23.136 135.486 24.256C134.926 25.3667 134.147 26.2207 133.148 26.818C132.149 27.406 131.001 27.7047 129.704 27.714V26.412C130.983 26.4027 132.056 26.0713 132.924 25.418C133.792 24.7553 134.38 23.794 134.688 22.534H129.704V21.274H134.898C134.926 20.9753 134.94 20.672 134.94 20.364V18.194H129.704V16.934ZM155.239 22.674H153.559V28.456H152.173V16.5H153.559V21.344H155.239V22.674ZM143.171 16.934H149.793V20.28C149.793 21.8107 149.513 23.136 148.953 24.256C148.393 25.3667 147.613 26.2207 146.615 26.818C145.616 27.406 144.468 27.7047 143.171 27.714V26.412C144.449 26.4027 145.523 26.0713 146.391 25.418C147.259 24.7553 147.847 23.794 148.155 22.534H143.171V21.274H148.365C148.393 20.9753 148.407 20.672 148.407 20.364V18.194H143.171V16.934ZM168.146 26.58V27.882H156.204V26.58H161.454V24.032C160.511 23.9667 159.685 23.7753 158.976 23.458C158.276 23.1407 157.734 22.7207 157.352 22.198C156.969 21.666 156.778 21.064 156.778 20.392C156.778 19.664 157.002 19.0247 157.45 18.474C157.898 17.914 158.528 17.48 159.34 17.172C160.152 16.864 161.094 16.71 162.168 16.71C163.241 16.71 164.184 16.864 164.996 17.172C165.808 17.48 166.438 17.914 166.886 18.474C167.334 19.0247 167.558 19.664 167.558 20.392C167.558 21.064 167.366 21.666 166.984 22.198C166.601 22.7207 166.055 23.1407 165.346 23.458C164.636 23.7753 163.81 23.9667 162.868 24.032V26.58H168.146ZM158.248 20.392C158.248 20.868 158.411 21.288 158.738 21.652C159.064 22.016 159.522 22.3007 160.11 22.506C160.707 22.702 161.393 22.8 162.168 22.8C162.952 22.8 163.638 22.702 164.226 22.506C164.823 22.3007 165.285 22.016 165.612 21.652C165.938 21.288 166.102 20.868 166.102 20.392C166.102 19.916 165.938 19.496 165.612 19.132C165.285 18.7587 164.823 18.474 164.226 18.278C163.638 18.0727 162.952 17.97 162.168 17.97C161.393 17.97 160.707 18.0727 160.11 18.278C159.522 18.474 159.064 18.7587 158.738 19.132C158.411 19.496 158.248 19.916 158.248 20.392ZM185.536 26.608V27.882H173.594V26.608H178.83V24.354H174.392V20.042H183.38V18.166H174.392V16.934H184.752V21.232H175.778V23.122H184.934V24.354H180.244V26.608H185.536ZM196.749 18.222H187.789V16.92H198.205V25.208H196.749V18.222ZM187.061 26.58H199.003V27.882H187.061V26.58ZM210.3 16.5H211.686V25.376H210.3V16.5ZM204.434 23.57C203.668 23.57 202.996 23.4207 202.418 23.122C201.848 22.8233 201.41 22.4127 201.102 21.89C200.794 21.358 200.64 20.7607 200.64 20.098C200.64 19.4353 200.794 18.8427 201.102 18.32C201.41 17.788 201.848 17.3727 202.418 17.074C202.996 16.7753 203.668 16.626 204.434 16.626C205.199 16.626 205.866 16.7753 206.436 17.074C207.005 17.3727 207.444 17.7833 207.752 18.306C208.06 18.8287 208.214 19.426 208.214 20.098C208.214 20.77 208.06 21.3673 207.752 21.89C207.444 22.4127 207.005 22.8233 206.436 23.122C205.866 23.4207 205.199 23.57 204.434 23.57ZM204.434 22.394C205.152 22.394 205.731 22.1887 206.17 21.778C206.608 21.358 206.828 20.798 206.828 20.098C206.828 19.398 206.604 18.838 206.156 18.418C205.717 17.998 205.143 17.788 204.434 17.788C203.715 17.788 203.132 17.998 202.684 18.418C202.245 18.838 202.026 19.398 202.026 20.098C202.026 20.798 202.245 21.358 202.684 21.778C203.132 22.1887 203.715 22.394 204.434 22.394ZM201.69 24.396H203.104V27.042H212.008V28.302H201.69V24.396Z" fill="black"/>
</svg>
