<svg width="40" height="40" viewBox="0 0 40 40" fill="none" xmlns="http://www.w3.org/2000/svg">
<circle cx="20" cy="20" r="20" fill="#7D00FF"/>
<g clip-path="url(#clip0_1387_12597)">
<path d="M21.9378 12.3882C21.1685 12.3956 20.4117 12.5831 19.7279 12.9357C19.0442 13.2883 18.4525 13.7961 18.0003 14.4184C17.5481 13.7961 16.9564 13.2883 16.2726 12.9357C15.5889 12.5831 14.8321 12.3956 14.0628 12.3882C12.6691 12.4438 11.3542 13.0491 10.4055 14.0715C9.45682 15.094 8.9516 16.4505 9.00029 17.8444C9.00029 21.2584 12.5058 24.9132 15.4503 27.3784C16.1653 27.9796 17.0695 28.3093 18.0037 28.3093C18.9378 28.3093 19.842 27.9796 20.557 27.3784C23.4985 24.9132 27.007 21.2584 27.007 17.8444C27.0557 16.4494 26.5496 15.0919 25.5994 14.0692C24.6493 13.0466 23.3327 12.4421 21.9378 12.3882V12.3882ZM19.108 25.6542C18.7979 25.9153 18.4054 26.0586 17.9999 26.0586C17.5944 26.0586 17.202 25.9153 16.8918 25.6542C13.3068 22.6482 11.2503 19.8019 11.2503 17.8444C11.2025 17.0473 11.471 16.2636 11.9976 15.6633C12.5242 15.063 13.2663 14.6946 14.0628 14.6382C14.8593 14.6946 15.6014 15.063 16.128 15.6633C16.6546 16.2636 16.9231 17.0473 16.8753 17.8444C16.8753 18.1428 16.9938 18.429 17.2048 18.6399C17.4158 18.8509 17.7019 18.9694 18.0003 18.9694C18.2987 18.9694 18.5848 18.8509 18.7958 18.6399C19.0068 18.429 19.1253 18.1428 19.1253 17.8444C19.0775 17.0473 19.346 16.2636 19.8726 15.6633C20.3992 15.063 21.1413 14.6946 21.9378 14.6382C22.7343 14.6946 23.4764 15.063 24.003 15.6633C24.5296 16.2636 24.7981 17.0473 24.7503 17.8444C24.7503 19.8019 22.6938 22.6482 19.108 25.6542Z" fill="white"/>
</g>
<path fill-rule="evenodd" clip-rule="evenodd" d="M30 22C30.2008 22 30.3636 22.1628 30.3636 22.3636V25.6364H33.6364C33.8372 25.6364 34 25.7992 34 26C34 26.2008 33.8372 26.3636 33.6364 26.3636H30.3636V29.6364C30.3636 29.8372 30.2008 30 30 30C29.7992 30 29.6364 29.8372 29.6364 29.6364V26.3636H26.3636C26.1628 26.3636 26 26.2008 26 26C26 25.7992 26.1628 25.6364 26.3636 25.6364H29.6364V22.3636C29.6364 22.1628 29.7992 22 30 22Z" fill="white" stroke="white" stroke-width="2" stroke-linecap="round" stroke-linejoin="round"/>
<defs>
<clipPath id="clip0_1387_12597">
<rect width="18" height="18" fill="white" transform="translate(9 11)"/>
</clipPath>
</defs>
</svg>
